<svg aria-hidden="true" style="width:0;height:0;position:absolute;overflow:hidden" xmlns="http://www.w3.org/2000/svg"><defs><symbol id="icon-menu-hamburger" viewBox="0 0 47 32"><path d="M6.4 11.733V9.6h19.2v2.133H6.4zm0 5.334h19.2v-2.133H6.4v2.133zm0 5.333h19.2v-2.133H6.4V22.4z"/></symbol><symbol id="icon-scroll" viewBox="0 0 32 32"><path d="M17.489 18.933a2.082 2.082 0 0 1-2.294.459 2.077 2.077 0 0 1-.682-.459L4.917 9.316a2.108 2.108 0 0 0-1.488-.62 2.104 2.104 0 0 0-1.488.62 2.097 2.097 0 0 0 0 2.954l9.617 9.617a6.286 6.286 0 0 0 8.884 0l9.617-9.617a2.099 2.099 0 0 0-1.488-3.574 2.104 2.104 0 0 0-1.488.62l-9.596 9.617z"/></symbol><symbol id="icon-close-btn" viewBox="0 0 32 32"><path d="M32 3.223 28.777 0 16 12.777 3.223 0 0 3.223 12.777 16 0 28.777 3.223 32 16 19.223 28.777 32 32 28.777 19.223 16 32 3.223z"/></symbol><symbol id="icon-la_utensil-spoon" viewBox="0 0 32 32"><path d="M15.451 14.106a5.154 5.154 0 0 1-1.177-3.282c0-4.324 5.181-8.642 10.362-8.642a5.183 5.183 0 0 1 5.181 5.182c0 5.182-4.317 10.364-8.646 10.364a5.15 5.15 0 0 1-3.281-1.177L5.132 29.312a1.73 1.73 0 0 1-2.445-2.445l12.764-12.761z"/></symbol><symbol id="icon-coin" viewBox="0 0 32 32"><path d="M16 2.667c-7.333 0-13.333 6-13.333 13.333s6 13.333 13.333 13.333 13.333-6 13.333-13.333S23.333 2.667 16 2.667zm0 24c-5.867 0-10.667-4.8-10.667-10.667S10.133 5.333 16 5.333 26.667 10.133 26.667 16 21.867 26.667 16 26.667z"/><path d="M17.733 14.667h-3.467c-.667 0-1.2-.533-1.2-1.2s.533-1.2 1.2-1.2h4.933c.8 0 1.333-.533 1.333-1.333s-.533-1.333-1.333-1.333h-1.867v-1.2c0-.8-.533-1.333-1.333-1.333s-1.333.533-1.333 1.333v1.2h-.4c-2.133 0-3.867 1.733-3.867 3.867s1.733 3.867 3.867 3.867h3.333c.667 0 1.2.533 1.2 1.2s-.533 1.2-1.2 1.2h-4.933c-.8 0-1.333.533-1.333 1.333s.533 1.333 1.333 1.333h2v1.2c0 .8.533 1.333 1.333 1.333s1.333-.533 1.333-1.333v-1.2h.4c2.133 0 3.867-1.733 3.867-3.867s-1.733-3.867-3.867-3.867z"/></symbol><symbol id="icon-fluent-emoji-high-contrast_chocolate-bar" viewBox="0 0 32 32"><path d="m13.822 2.413 7.527 7.536.08-.08a.856.856 0 0 1 1.184-.013l.873.873c.305.305.315.77.083 1.094l-.004.007-.143.192 6.16 6.16c.55.55.55 1.43 0 1.98l-9.43 9.43c-.55.55-1.43.55-1.98 0l-4.447-4.447a.853.853 0 0 1-.612.317.842.842 0 0 1-.644-.246l-2.6-2.6a.856.856 0 0 1-.013-1.184l.006-.007.077-.076-7.527-7.527c-.55-.55-.55-1.43 0-1.98l9.43-9.43c.55-.55 1.43-.55 1.98 0v.001zm6.582 8.48-1.756-1.755a.59.59 0 0 0-.85 0l-3.58 3.58a.621.621 0 0 0-.179.43.602.602 0 0 0 .179.43l1.749 1.749.61-.61-1.565-1.565 3.21-3.22 1.569 1.574.613-.613zm-5.076 5.072-1.754-1.754a.59.59 0 0 0-.85 0l-3.59 3.59c-.24.23-.24.61 0 .85l1.752 1.752.616-.616-1.57-1.564 3.22-3.21 1.564 1.563.612-.611zM8.822 8.193l3.58 3.58c.24.24.62.24.85-.01l3.58-3.58a.57.57 0 0 0 .18-.42h.01c0-.15-.06-.31-.18-.43l-3.58-3.58a.602.602 0 0 0-.86 0l-3.58 3.59c-.24.23-.24.61 0 .85zm-5.07 5.07 3.58 3.58c.24.24.62.24.85 0l3.58-3.58a.578.578 0 0 0 .18-.43h.01c0-.16-.06-.31-.18-.43l-3.58-3.58a.59.59 0 0 0-.85 0l-3.59 3.59c-.24.23-.24.61 0 .85zm6.933 8.754 2.362 2.363 9.636-13.04-.655-.655-11.343 11.332z"/><path d="m13.822 2.413 7.527 7.536.08-.08a.856.856 0 0 1 1.184-.013l.873.873c.305.305.315.77.083 1.094l-.004.007-.143.192 6.16 6.16c.55.55.55 1.43 0 1.98l-9.43 9.43c-.55.55-1.43.55-1.98 0l-4.447-4.447a.853.853 0 0 1-.612.317.842.842 0 0 1-.644-.246l-2.6-2.6a.856.856 0 0 1-.013-1.184l.006-.007.077-.076-7.527-7.527c-.55-.55-.55-1.43 0-1.98l9.43-9.43c.55-.55 1.43-.55 1.98 0v.001zm6.582 8.48-1.756-1.755a.59.59 0 0 0-.85 0l-3.58 3.58a.621.621 0 0 0-.179.43.602.602 0 0 0 .179.43l1.749 1.749.61-.61-1.565-1.565 3.21-3.22 1.569 1.574.613-.613zm-5.076 5.072-1.754-1.754a.59.59 0 0 0-.85 0l-3.59 3.59c-.24.23-.24.61 0 .85l1.752 1.752.616-.616-1.57-1.564 3.22-3.21 1.564 1.563.612-.611zM8.822 8.193l3.58 3.58c.24.24.62.24.85-.01l3.58-3.58a.57.57 0 0 0 .18-.42h.01c0-.15-.06-.31-.18-.43l-3.58-3.58a.602.602 0 0 0-.86 0l-3.58 3.59c-.24.23-.24.61 0 .85zm-5.07 5.07 3.58 3.58c.24.24.62.24.85 0l3.58-3.58a.578.578 0 0 0 .18-.43h.01c0-.16-.06-.31-.18-.43l-3.58-3.58a.59.59 0 0 0-.85 0l-3.59 3.59c-.24.23-.24.61 0 .85zm6.933 8.754 2.362 2.363 9.636-13.04-.655-.655-11.343 11.332z"/></symbol><symbol id="icon-twitter" viewBox="0 0 32 32"><path d="M21.387 4.959c1.652 0 3.144.676 4.195 1.762a11.799 11.799 0 0 0 3.648-1.352 5.624 5.624 0 0 1-2.525 3.083c1.16-.136 2.27-.434 3.301-.88a11.549 11.549 0 0 1-2.868 2.886c.011.239.017.479.017.719 0 7.366-5.782 15.863-16.354 15.863-3.245 0-6.268-.926-8.809-2.507.449.052.906.079 1.37.079 2.692 0 5.172-.89 7.139-2.387-2.517-.043-4.641-1.657-5.369-3.87a5.879 5.879 0 0 0 2.594-.094c-2.629-.511-4.611-2.764-4.611-5.467v-.072a5.86 5.86 0 0 0 2.605.698c-1.543-1.001-2.558-2.705-2.558-4.64 0-1.022.284-1.981.779-2.801 2.834 3.371 7.069 5.591 11.847 5.824a5.45 5.45 0 0 1-.149-1.27c0-3.079 2.574-5.575 5.749-5.575zm8.619 2.613zm-8.619-4.613c-3.927 0-7.18 2.869-7.681 6.576-3.213-.646-6.135-2.346-8.235-4.842a1.998 1.998 0 0 0-3.244.255 7.419 7.419 0 0 0-.597 6.434 2.005 2.005 0 0 0-.515 1.341v.072c0 1.959.774 3.777 2.061 5.139-.074.343-.058.702.055 1.046a7.533 7.533 0 0 0 2.298 3.398 9.935 9.935 0 0 1-3.302.169A1.997 1.997 0 0 0 .104 23.87a2 2 0 0 0 .83 2.361 18.653 18.653 0 0 0 9.866 2.808c11.376 0 18.219-8.905 18.352-17.605a13.42 13.42 0 0 0 2.451-2.661 2 2 0 0 0-.454-2.847 2 2 0 0 0-1.919-2.559c-.344 0-.689.088-.999.268a9.6 9.6 0 0 1-2.113.9 7.893 7.893 0 0 0-4.732-1.578z"/></symbol><symbol id="icon-instagram" viewBox="0 0 32 32"><path d="M31.867 9.467c-.133-1.733-.4-2.8-.8-3.867-.267-1.067-.8-2-1.733-2.933S27.601 1.2 26.534.8C25.467.4 24.401.133 22.667 0H16c-4.4 0-4.933 0-6.533.133-1.733 0-2.933.267-4 .667-.933.4-1.867.933-2.8 1.867S1.2 4.534.8 5.467c-.4 1.067-.667 2.267-.667 4C0 11.067 0 11.6 0 16s0 4.933.133 6.533c.133 1.733.4 2.8.8 3.867.267 1.067.8 2 1.733 2.933s1.733 1.467 2.8 1.867c1.067.4 2.133.667 3.867.8H16c4.4 0 4.933 0 6.533-.133 1.733-.133 2.8-.4 3.867-.8s2-.933 2.8-1.867 1.467-1.733 1.867-2.8c.4-1.067.667-2.133.8-3.867C32 20.933 32 20.4 32 16s0-4.933-.133-6.533zm-2.8 12.933c-.133 1.6-.267 2.4-.533 2.933-.267.8-.667 1.333-1.2 1.867s-1.067.933-1.867 1.2c-.533.267-1.467.533-2.933.533-1.733.133-2.133.133-6.4.133s-4.8 0-6.4-.133c-1.6-.133-2.4-.267-2.933-.533-.8-.267-1.333-.667-1.867-1.2s-.933-1.067-1.2-1.867c-.267-.533-.533-1.467-.533-2.933-.133-1.733-.133-2.133-.133-6.4s0-4.8.133-6.4c-.133-1.6.133-2.533.267-3.067.267-.8.667-1.333 1.2-1.867s1.067-.933 1.867-1.2c.533-.133 1.467-.4 3.067-.533h6.4c4.267 0 4.8 0 6.4.133 1.6.133 2.4.267 2.933.533.8.267 1.333.667 1.867 1.2s.933 1.067 1.2 1.867c.267.533.533 1.467.533 2.933.133 1.733.133 2.133.133 6.4v6.4z"/><path d="M16 8c-4.4 0-8 3.6-8 8s3.6 8 8 8 8-3.6 8-8-3.6-8-8-8zm0 13.2c-2.933 0-5.2-2.267-5.2-5.2s2.267-5.2 5.2-5.2 5.2 2.267 5.2 5.2-2.267 5.2-5.2 5.2zM26.667 8a2 2 0 1 1-3.999.001A2 2 0 0 1 26.667 8z"/></symbol><symbol id="icon-chocolate" viewBox="0 0 32 32"><path fill="#fcf1e0" style="fill:var(--color1,#fcf1e0)" d="M3.944 20.076 14.721 2.652l.64-.674 8.236 5.491.056 3.314 2.01 3.28-8.88 14.077-12.839-8.063z"/><path fill="none" stroke="#fd9222" style="stroke:var(--color2,#fd9222)" stroke-linejoin="round" stroke-linecap="round" stroke-width="2.667" d="M21.635 23.88 7.45 15.016m3.911-6.417 14.185 8.864M10.63 25.864l11.736-19.25m4.81 8.175c-3.04-1.899-4.234-3.384-2.278-6.592l-9.626-6.015-11.736 19.25 14.186 8.864 9.454-15.507z"/></symbol><symbol id="icon-mastercard" viewBox="0 0 51 32"><path fill="#ed0006" style="fill:var(--color1,#ed0006)" d="M25.6 26.935a14.53 14.53 0 0 1-9.496 3.518c-8.086 0-14.641-6.593-14.641-14.726S8.018 1.001 16.104 1.001c3.624 0 6.94 1.324 9.496 3.518a14.532 14.532 0 0 1 9.497-3.518c8.086 0 14.64 6.593 14.64 14.726s-6.555 14.726-14.64 14.726c-3.624 0-6.94-1.324-9.497-3.518z"/><path fill="#f9a000" style="fill:var(--color2,#f9a000)" d="M25.6 26.935c3.148-2.701 5.144-6.72 5.144-11.209S28.748 7.219 25.6 4.518A14.53 14.53 0 0 1 35.097 1c8.086 0 14.64 6.593 14.64 14.726s-6.555 14.726-14.64 14.726c-3.624 0-6.94-1.324-9.497-3.518z"/><path fill="#ff5e00" style="fill:var(--color3,#ff5e00)" d="M25.6 26.935c3.148-2.701 5.144-6.72 5.144-11.208S28.748 7.22 25.6 4.519c-3.148 2.701-5.144 6.72-5.144 11.208s1.996 8.507 5.144 11.208z"/></symbol><symbol id="icon-ua" viewBox="0 0 41 32"><path fill="gold" style="fill:var(--color4,gold)" d="M40.745 1.355H.311v30.09h40.434V1.355z"/><path fill="#0057b7" style="fill:var(--color5,#0057b7)" d="M.311 1.355h40.434V16.4H.311V1.355z"/></symbol></defs></svg>